<svg width="102" height="92" viewBox="0 0 102 92" fill="none" xmlns="http://www.w3.org/2000/svg">
<rect width="102" height="92" rx="9" fill="#0A3C43"/>
<path d="M78.7784 74.0063H63.8474C62.8914 67.9206 59.7279 63.2748 54.861 61.8348L54.7219 54.3947C59.6758 54.3947 63.4129 50.9661 62.735 47.1946C62.3004 44.726 60.232 43.526 57.5204 43.526C52.1668 43.526 48.9512 48.0003 48.8295 54.6347L48.6557 74.0063H35.7062L35.8105 61.0805H22.8784V49.8518H35.8974V45.806H22.8784V34.5945H36.0191L36.1408 18H49.125L48.9512 39.9945C51.0022 35.3659 55.3303 32.7259 61.414 32.7259C69.4444 32.7259 74.6937 37.2859 75.893 44.3146C76.502 47.1062 76.1341 50.019 74.8494 52.5781C73.5647 55.1371 71.4389 57.1914 68.8186 58.4062C71.4855 60.1825 73.7483 62.4868 75.463 65.1726C77.1777 67.8584 78.3068 70.8668 78.7784 74.0063Z" fill="white"/>
</svg>
